<svg xmlns="http://www.w3.org/2000/svg" width="1540" height="616" viewBox="0 0 1540 616" role="img" aria-labelledby="title desc">
<title id="title">Country geography and feasible-candidate exposure</title>
<desc id="desc">Separate Tukey boxplots for legacy and inter-region candidate-exposure rates.</desc>
<rect width="1540" height="616" fill="#F5F1E8"/>
<text x="34.0" y="42.0" text-anchor="start" font-family="Georgia, Segoe UI, sans-serif" font-size="27" font-weight="500" fill="#17313D">Country geography and feasible-candidate exposure</text>
<text x="34.0" y="70.0" text-anchor="start" font-family="Georgia, Segoe UI, sans-serif" font-size="14" font-weight="400" fill="#526A75">Rate sources are separated because their exposure semantics are not interchangeable.</text>
<text x="34.0" y="95.0" text-anchor="start" font-family="Georgia, Segoe UI, sans-serif" font-size="12" font-weight="400" fill="#526A75">Boxes show Q1–Q3; center line is median; whiskers use 1.5×IQR; dots are sampled outliers.</text>
<rect x="30.0" y="118.0" width="740.0" height="470.0" rx="10" fill="#FFFFFF" stroke="#CAD8DD"/>
<text x="52.0" y="149.0" text-anchor="start" font-family="Georgia, Segoe UI, sans-serif" font-size="18" font-weight="500" fill="#17313D">Legacy feasible-candidate exposure</text>
<text x="52.0" y="170.0" text-anchor="start" font-family="Georgia, Segoe UI, sans-serif" font-size="12" font-weight="400" fill="#526A75">Rate source kept separate; values are candidate exposure, not observed cable use.</text>
<line x1="108.0" y1="496.0" x2="746.0" y2="496.0" stroke="#E4ECEF" stroke-width="1"/>
<text x="98.0" y="501.0" text-anchor="end" font-family="Georgia, Segoe UI, sans-serif" font-size="12" font-weight="400" fill="#526A75">0.00</text>
<line x1="108.0" y1="417.5" x2="746.0" y2="417.5" stroke="#E4ECEF" stroke-width="1"/>
<text x="98.0" y="422.5" text-anchor="end" font-family="Georgia, Segoe UI, sans-serif" font-size="12" font-weight="400" fill="#526A75">0.25</text>
<line x1="108.0" y1="339.0" x2="746.0" y2="339.0" stroke="#E4ECEF" stroke-width="1"/>
<text x="98.0" y="344.0" text-anchor="end" font-family="Georgia, Segoe UI, sans-serif" font-size="12" font-weight="400" fill="#526A75">0.50</text>
<line x1="108.0" y1="260.5" x2="746.0" y2="260.5" stroke="#E4ECEF" stroke-width="1"/>
<text x="98.0" y="265.5" text-anchor="end" font-family="Georgia, Segoe UI, sans-serif" font-size="12" font-weight="400" fill="#526A75">0.75</text>
<line x1="108.0" y1="182.0" x2="746.0" y2="182.0" stroke="#E4ECEF" stroke-width="1"/>
<text x="98.0" y="187.0" text-anchor="end" font-family="Georgia, Segoe UI, sans-serif" font-size="12" font-weight="400" fill="#526A75">1.00</text>
<text x="214.3" y="523.0" text-anchor="middle" font-family="Georgia, Segoe UI, sans-serif" font-size="12" font-weight="400" fill="#17313D">Coastal mainland / mixed</text>
<text x="214.3" y="543.0" text-anchor="middle" font-family="Georgia, Segoe UI, sans-serif" font-size="11" font-weight="400" fill="#526A75">n=1395</text>
<line x1="214.3" y1="254.7" x2="214.3" y2="399.2" stroke="#176B87" stroke-width="2"/>
<line x1="214.3" y1="496.0" x2="214.3" y2="496.0" stroke="#176B87" stroke-width="2"/>
<line x1="189.7" y1="254.7" x2="239.0" y2="254.7" stroke="#176B87" stroke-width="2"/>
<line x1="189.7" y1="496.0" x2="239.0" y2="496.0" stroke="#176B87" stroke-width="2"/>
<rect x="177.3" y="399.2" width="74.0" height="96.8" fill="#176B87" fill-opacity="0.24" stroke="#176B87" stroke-width="2"/>
<line x1="177.3" y1="477.5" x2="251.3" y2="477.5" stroke="#17313D" stroke-width="3"/>
<circle cx="205.9" cy="251.8" r="2.4" fill="#176B87" fill-opacity="0.55"/>
<circle cx="208.0" cy="248.6" r="2.4" fill="#176B87" fill-opacity="0.55"/>
<circle cx="210.1" cy="248.6" r="2.4" fill="#176B87" fill-opacity="0.55"/>
<circle cx="212.2" cy="245.4" r="2.4" fill="#176B87" fill-opacity="0.55"/>
<circle cx="214.3" cy="244.8" r="2.4" fill="#176B87" fill-opacity="0.55"/>
<circle cx="216.4" cy="242.1" r="2.4" fill="#176B87" fill-opacity="0.55"/>
<circle cx="218.5" cy="241.3" r="2.4" fill="#176B87" fill-opacity="0.55"/>
<circle cx="220.6" cy="240.9" r="2.4" fill="#176B87" fill-opacity="0.55"/>
<circle cx="222.7" cy="239.8" r="2.4" fill="#176B87" fill-opacity="0.55"/>
<circle cx="205.9" cy="238.3" r="2.4" fill="#176B87" fill-opacity="0.55"/>
<circle cx="208.0" cy="234.3" r="2.4" fill="#176B87" fill-opacity="0.55"/>
<circle cx="210.1" cy="234.3" r="2.4" fill="#176B87" fill-opacity="0.55"/>
<circle cx="212.2" cy="234.3" r="2.4" fill="#176B87" fill-opacity="0.55"/>
<circle cx="214.3" cy="232.1" r="2.4" fill="#176B87" fill-opacity="0.55"/>
<circle cx="216.4" cy="228.5" r="2.4" fill="#176B87" fill-opacity="0.55"/>
<circle cx="218.5" cy="225.6" r="2.4" fill="#176B87" fill-opacity="0.55"/>
<circle cx="220.6" cy="202.9" r="2.4" fill="#176B87" fill-opacity="0.55"/>
<circle cx="222.7" cy="182.0" r="2.4" fill="#176B87" fill-opacity="0.55"/>
<circle cx="205.9" cy="182.0" r="2.4" fill="#176B87" fill-opacity="0.55"/>
<circle cx="208.0" cy="182.0" r="2.4" fill="#176B87" fill-opacity="0.55"/>
<circle cx="210.1" cy="182.0" r="2.4" fill="#176B87" fill-opacity="0.55"/>
<circle cx="212.2" cy="182.0" r="2.4" fill="#176B87" fill-opacity="0.55"/>
<circle cx="214.3" cy="182.0" r="2.4" fill="#176B87" fill-opacity="0.55"/>
<circle cx="216.4" cy="182.0" r="2.4" fill="#176B87" fill-opacity="0.55"/>
<circle cx="218.5" cy="182.0" r="2.4" fill="#176B87" fill-opacity="0.55"/>
<circle cx="220.6" cy="182.0" r="2.4" fill="#176B87" fill-opacity="0.55"/>
<circle cx="222.7" cy="182.0" r="2.4" fill="#176B87" fill-opacity="0.55"/>
<circle cx="205.9" cy="182.0" r="2.4" fill="#176B87" fill-opacity="0.55"/>
<circle cx="208.0" cy="182.0" r="2.4" fill="#176B87" fill-opacity="0.55"/>
<circle cx="210.1" cy="182.0" r="2.4" fill="#176B87" fill-opacity="0.55"/>
<circle cx="212.2" cy="182.0" r="2.4" fill="#176B87" fill-opacity="0.55"/>
<circle cx="214.3" cy="182.0" r="2.4" fill="#176B87" fill-opacity="0.55"/>
<circle cx="216.4" cy="182.0" r="2.4" fill="#176B87" fill-opacity="0.55"/>
<circle cx="218.5" cy="182.0" r="2.4" fill="#176B87" fill-opacity="0.55"/>
<circle cx="220.6" cy="182.0" r="2.4" fill="#176B87" fill-opacity="0.55"/>
<circle cx="222.7" cy="182.0" r="2.4" fill="#176B87" fill-opacity="0.55"/>
<circle cx="205.9" cy="182.0" r="2.4" fill="#176B87" fill-opacity="0.55"/>
<circle cx="208.0" cy="182.0" r="2.4" fill="#176B87" fill-opacity="0.55"/>
<circle cx="210.1" cy="182.0" r="2.4" fill="#176B87" fill-opacity="0.55"/>
<circle cx="212.2" cy="182.0" r="2.4" fill="#176B87" fill-opacity="0.55"/>
<circle cx="214.3" cy="182.0" r="2.4" fill="#176B87" fill-opacity="0.55"/>
<circle cx="216.4" cy="182.0" r="2.4" fill="#176B87" fill-opacity="0.55"/>
<circle cx="218.5" cy="182.0" r="2.4" fill="#176B87" fill-opacity="0.55"/>
<circle cx="220.6" cy="182.0" r="2.4" fill="#176B87" fill-opacity="0.55"/>
<circle cx="222.7" cy="182.0" r="2.4" fill="#176B87" fill-opacity="0.55"/>
<circle cx="205.9" cy="182.0" r="2.4" fill="#176B87" fill-opacity="0.55"/>
<circle cx="208.0" cy="182.0" r="2.4" fill="#176B87" fill-opacity="0.55"/>
<circle cx="210.1" cy="182.0" r="2.4" fill="#176B87" fill-opacity="0.55"/>
<circle cx="212.2" cy="182.0" r="2.4" fill="#176B87" fill-opacity="0.55"/>
<circle cx="214.3" cy="182.0" r="2.4" fill="#176B87" fill-opacity="0.55"/>
<circle cx="216.4" cy="182.0" r="2.4" fill="#176B87" fill-opacity="0.55"/>
<circle cx="218.5" cy="182.0" r="2.4" fill="#176B87" fill-opacity="0.55"/>
<circle cx="220.6" cy="182.0" r="2.4" fill="#176B87" fill-opacity="0.55"/>
<circle cx="222.7" cy="182.0" r="2.4" fill="#176B87" fill-opacity="0.55"/>
<circle cx="205.9" cy="182.0" r="2.4" fill="#176B87" fill-opacity="0.55"/>
<circle cx="208.0" cy="182.0" r="2.4" fill="#176B87" fill-opacity="0.55"/>
<circle cx="210.1" cy="182.0" r="2.4" fill="#176B87" fill-opacity="0.55"/>
<circle cx="212.2" cy="182.0" r="2.4" fill="#176B87" fill-opacity="0.55"/>
<circle cx="214.3" cy="182.0" r="2.4" fill="#176B87" fill-opacity="0.55"/>
<circle cx="216.4" cy="182.0" r="2.4" fill="#176B87" fill-opacity="0.55"/>
<circle cx="218.5" cy="182.0" r="2.4" fill="#176B87" fill-opacity="0.55"/>
<circle cx="220.6" cy="182.0" r="2.4" fill="#176B87" fill-opacity="0.55"/>
<circle cx="222.7" cy="182.0" r="2.4" fill="#176B87" fill-opacity="0.55"/>
<circle cx="205.9" cy="182.0" r="2.4" fill="#176B87" fill-opacity="0.55"/>
<circle cx="208.0" cy="182.0" r="2.4" fill="#176B87" fill-opacity="0.55"/>
<circle cx="210.1" cy="182.0" r="2.4" fill="#176B87" fill-opacity="0.55"/>
<circle cx="212.2" cy="182.0" r="2.4" fill="#176B87" fill-opacity="0.55"/>
<circle cx="214.3" cy="182.0" r="2.4" fill="#176B87" fill-opacity="0.55"/>
<circle cx="216.4" cy="182.0" r="2.4" fill="#176B87" fill-opacity="0.55"/>
<circle cx="218.5" cy="182.0" r="2.4" fill="#176B87" fill-opacity="0.55"/>
<circle cx="220.6" cy="182.0" r="2.4" fill="#176B87" fill-opacity="0.55"/>
<circle cx="222.7" cy="182.0" r="2.4" fill="#176B87" fill-opacity="0.55"/>
<circle cx="205.9" cy="182.0" r="2.4" fill="#176B87" fill-opacity="0.55"/>
<circle cx="208.0" cy="182.0" r="2.4" fill="#176B87" fill-opacity="0.55"/>
<circle cx="210.1" cy="182.0" r="2.4" fill="#176B87" fill-opacity="0.55"/>
<circle cx="212.2" cy="182.0" r="2.4" fill="#176B87" fill-opacity="0.55"/>
<circle cx="214.3" cy="182.0" r="2.4" fill="#176B87" fill-opacity="0.55"/>
<circle cx="216.4" cy="182.0" r="2.4" fill="#176B87" fill-opacity="0.55"/>
<circle cx="218.5" cy="182.0" r="2.4" fill="#176B87" fill-opacity="0.55"/>
<circle cx="220.6" cy="182.0" r="2.4" fill="#176B87" fill-opacity="0.55"/>
<text x="427.0" y="523.0" text-anchor="middle" font-family="Georgia, Segoe UI, sans-serif" font-size="12" font-weight="400" fill="#17313D">Island / archipelagic</text>
<text x="427.0" y="543.0" text-anchor="middle" font-family="Georgia, Segoe UI, sans-serif" font-size="11" font-weight="400" fill="#526A75">n=720</text>
<line x1="427.0" y1="182.0" x2="427.0" y2="216.9" stroke="#D97706" stroke-width="2"/>
<line x1="427.0" y1="496.0" x2="427.0" y2="496.0" stroke="#D97706" stroke-width="2"/>
<line x1="402.3" y1="182.0" x2="451.7" y2="182.0" stroke="#D97706" stroke-width="2"/>
<line x1="402.3" y1="496.0" x2="451.7" y2="496.0" stroke="#D97706" stroke-width="2"/>
<rect x="390.0" y="216.9" width="74.0" height="279.1" fill="#D97706" fill-opacity="0.24" stroke="#D97706" stroke-width="2"/>
<line x1="390.0" y1="378.4" x2="464.0" y2="378.4" stroke="#17313D" stroke-width="3"/>
<text x="639.7" y="523.0" text-anchor="middle" font-family="Georgia, Segoe UI, sans-serif" font-size="12" font-weight="400" fill="#17313D">Landlocked</text>
<text x="639.7" y="543.0" text-anchor="middle" font-family="Georgia, Segoe UI, sans-serif" font-size="11" font-weight="400" fill="#526A75">n=615</text>
<line x1="639.7" y1="380.3" x2="639.7" y2="448.6" stroke="#2F855A" stroke-width="2"/>
<line x1="639.7" y1="496.0" x2="639.7" y2="496.0" stroke="#2F855A" stroke-width="2"/>
<line x1="615.0" y1="380.3" x2="664.3" y2="380.3" stroke="#2F855A" stroke-width="2"/>
<line x1="615.0" y1="496.0" x2="664.3" y2="496.0" stroke="#2F855A" stroke-width="2"/>
<rect x="602.7" y="448.6" width="74.0" height="47.4" fill="#2F855A" fill-opacity="0.24" stroke="#2F855A" stroke-width="2"/>
<line x1="602.7" y1="496.0" x2="676.7" y2="496.0" stroke="#17313D" stroke-width="3"/>
<circle cx="631.3" cy="373.9" r="2.4" fill="#2F855A" fill-opacity="0.55"/>
<circle cx="633.4" cy="370.4" r="2.4" fill="#2F855A" fill-opacity="0.55"/>
<circle cx="635.5" cy="366.7" r="2.4" fill="#2F855A" fill-opacity="0.55"/>
<circle cx="637.6" cy="361.4" r="2.4" fill="#2F855A" fill-opacity="0.55"/>
<circle cx="639.7" cy="358.6" r="2.4" fill="#2F855A" fill-opacity="0.55"/>
<circle cx="641.8" cy="356.4" r="2.4" fill="#2F855A" fill-opacity="0.55"/>
<circle cx="643.9" cy="355.2" r="2.4" fill="#2F855A" fill-opacity="0.55"/>
<circle cx="646.0" cy="353.3" r="2.4" fill="#2F855A" fill-opacity="0.55"/>
<circle cx="648.1" cy="339.0" r="2.4" fill="#2F855A" fill-opacity="0.55"/>
<circle cx="631.3" cy="339.0" r="2.4" fill="#2F855A" fill-opacity="0.55"/>
<circle cx="633.4" cy="339.0" r="2.4" fill="#2F855A" fill-opacity="0.55"/>
<circle cx="635.5" cy="339.0" r="2.4" fill="#2F855A" fill-opacity="0.55"/>
<circle cx="637.6" cy="339.0" r="2.4" fill="#2F855A" fill-opacity="0.55"/>
<circle cx="639.7" cy="339.0" r="2.4" fill="#2F855A" fill-opacity="0.55"/>
<circle cx="641.8" cy="339.0" r="2.4" fill="#2F855A" fill-opacity="0.55"/>
<circle cx="643.9" cy="339.0" r="2.4" fill="#2F855A" fill-opacity="0.55"/>
<circle cx="646.0" cy="339.0" r="2.4" fill="#2F855A" fill-opacity="0.55"/>
<circle cx="648.1" cy="339.0" r="2.4" fill="#2F855A" fill-opacity="0.55"/>
<circle cx="631.3" cy="339.0" r="2.4" fill="#2F855A" fill-opacity="0.55"/>
<circle cx="633.4" cy="339.0" r="2.4" fill="#2F855A" fill-opacity="0.55"/>
<circle cx="635.5" cy="330.7" r="2.4" fill="#2F855A" fill-opacity="0.55"/>
<circle cx="637.6" cy="321.6" r="2.4" fill="#2F855A" fill-opacity="0.55"/>
<circle cx="639.7" cy="319.4" r="2.4" fill="#2F855A" fill-opacity="0.55"/>
<circle cx="641.8" cy="307.6" r="2.4" fill="#2F855A" fill-opacity="0.55"/>
<circle cx="643.9" cy="305.9" r="2.4" fill="#2F855A" fill-opacity="0.55"/>
<circle cx="646.0" cy="298.3" r="2.4" fill="#2F855A" fill-opacity="0.55"/>
<circle cx="648.1" cy="296.2" r="2.4" fill="#2F855A" fill-opacity="0.55"/>
<circle cx="631.3" cy="294.1" r="2.4" fill="#2F855A" fill-opacity="0.55"/>
<circle cx="633.4" cy="286.7" r="2.4" fill="#2F855A" fill-opacity="0.55"/>
<circle cx="635.5" cy="286.7" r="2.4" fill="#2F855A" fill-opacity="0.55"/>
<circle cx="637.6" cy="286.7" r="2.4" fill="#2F855A" fill-opacity="0.55"/>
<circle cx="639.7" cy="286.7" r="2.4" fill="#2F855A" fill-opacity="0.55"/>
<circle cx="641.8" cy="278.6" r="2.4" fill="#2F855A" fill-opacity="0.55"/>
<circle cx="643.9" cy="260.5" r="2.4" fill="#2F855A" fill-opacity="0.55"/>
<circle cx="646.0" cy="234.3" r="2.4" fill="#2F855A" fill-opacity="0.55"/>
<circle cx="648.1" cy="226.9" r="2.4" fill="#2F855A" fill-opacity="0.55"/>
<circle cx="631.3" cy="216.9" r="2.4" fill="#2F855A" fill-opacity="0.55"/>
<circle cx="633.4" cy="215.1" r="2.4" fill="#2F855A" fill-opacity="0.55"/>
<circle cx="635.5" cy="182.0" r="2.4" fill="#2F855A" fill-opacity="0.55"/>
<circle cx="637.6" cy="182.0" r="2.4" fill="#2F855A" fill-opacity="0.55"/>
<circle cx="639.7" cy="182.0" r="2.4" fill="#2F855A" fill-opacity="0.55"/>
<circle cx="641.8" cy="182.0" r="2.4" fill="#2F855A" fill-opacity="0.55"/>
<circle cx="643.9" cy="182.0" r="2.4" fill="#2F855A" fill-opacity="0.55"/>
<circle cx="646.0" cy="182.0" r="2.4" fill="#2F855A" fill-opacity="0.55"/>
<circle cx="648.1" cy="182.0" r="2.4" fill="#2F855A" fill-opacity="0.55"/>
<circle cx="631.3" cy="182.0" r="2.4" fill="#2F855A" fill-opacity="0.55"/>
<circle cx="633.4" cy="182.0" r="2.4" fill="#2F855A" fill-opacity="0.55"/>
<circle cx="635.5" cy="182.0" r="2.4" fill="#2F855A" fill-opacity="0.55"/>
<circle cx="637.6" cy="182.0" r="2.4" fill="#2F855A" fill-opacity="0.55"/>
<circle cx="639.7" cy="182.0" r="2.4" fill="#2F855A" fill-opacity="0.55"/>
<circle cx="641.8" cy="182.0" r="2.4" fill="#2F855A" fill-opacity="0.55"/>
<circle cx="643.9" cy="182.0" r="2.4" fill="#2F855A" fill-opacity="0.55"/>
<circle cx="646.0" cy="182.0" r="2.4" fill="#2F855A" fill-opacity="0.55"/>
<circle cx="648.1" cy="182.0" r="2.4" fill="#2F855A" fill-opacity="0.55"/>
<circle cx="631.3" cy="182.0" r="2.4" fill="#2F855A" fill-opacity="0.55"/>
<circle cx="633.4" cy="182.0" r="2.4" fill="#2F855A" fill-opacity="0.55"/>
<circle cx="635.5" cy="182.0" r="2.4" fill="#2F855A" fill-opacity="0.55"/>
<circle cx="637.6" cy="182.0" r="2.4" fill="#2F855A" fill-opacity="0.55"/>
<circle cx="639.7" cy="182.0" r="2.4" fill="#2F855A" fill-opacity="0.55"/>
<circle cx="641.8" cy="182.0" r="2.4" fill="#2F855A" fill-opacity="0.55"/>
<circle cx="643.9" cy="182.0" r="2.4" fill="#2F855A" fill-opacity="0.55"/>
<circle cx="646.0" cy="182.0" r="2.4" fill="#2F855A" fill-opacity="0.55"/>
<circle cx="648.1" cy="182.0" r="2.4" fill="#2F855A" fill-opacity="0.55"/>
<circle cx="631.3" cy="182.0" r="2.4" fill="#2F855A" fill-opacity="0.55"/>
<circle cx="633.4" cy="182.0" r="2.4" fill="#2F855A" fill-opacity="0.55"/>
<circle cx="635.5" cy="182.0" r="2.4" fill="#2F855A" fill-opacity="0.55"/>
<circle cx="637.6" cy="182.0" r="2.4" fill="#2F855A" fill-opacity="0.55"/>
<circle cx="639.7" cy="182.0" r="2.4" fill="#2F855A" fill-opacity="0.55"/>
<circle cx="641.8" cy="182.0" r="2.4" fill="#2F855A" fill-opacity="0.55"/>
<circle cx="643.9" cy="182.0" r="2.4" fill="#2F855A" fill-opacity="0.55"/>
<circle cx="646.0" cy="182.0" r="2.4" fill="#2F855A" fill-opacity="0.55"/>
<circle cx="648.1" cy="182.0" r="2.4" fill="#2F855A" fill-opacity="0.55"/>
<circle cx="631.3" cy="182.0" r="2.4" fill="#2F855A" fill-opacity="0.55"/>
<circle cx="633.4" cy="182.0" r="2.4" fill="#2F855A" fill-opacity="0.55"/>
<circle cx="635.5" cy="182.0" r="2.4" fill="#2F855A" fill-opacity="0.55"/>
<circle cx="637.6" cy="182.0" r="2.4" fill="#2F855A" fill-opacity="0.55"/>
<circle cx="639.7" cy="182.0" r="2.4" fill="#2F855A" fill-opacity="0.55"/>
<circle cx="641.8" cy="182.0" r="2.4" fill="#2F855A" fill-opacity="0.55"/>
<circle cx="643.9" cy="182.0" r="2.4" fill="#2F855A" fill-opacity="0.55"/>
<circle cx="646.0" cy="182.0" r="2.4" fill="#2F855A" fill-opacity="0.55"/>
<rect x="800.0" y="118.0" width="740.0" height="470.0" rx="10" fill="#FFFFFF" stroke="#CAD8DD"/>
<text x="822.0" y="149.0" text-anchor="start" font-family="Georgia, Segoe UI, sans-serif" font-size="18" font-weight="500" fill="#17313D">Inter-region candidate exposure</text>
<text x="822.0" y="170.0" text-anchor="start" font-family="Georgia, Segoe UI, sans-serif" font-size="12" font-weight="400" fill="#526A75">Rate source kept separate; values are candidate exposure, not observed cable use.</text>
<line x1="878.0" y1="496.0" x2="1516.0" y2="496.0" stroke="#E4ECEF" stroke-width="1"/>
<text x="868.0" y="501.0" text-anchor="end" font-family="Georgia, Segoe UI, sans-serif" font-size="12" font-weight="400" fill="#526A75">0.00</text>
<line x1="878.0" y1="417.5" x2="1516.0" y2="417.5" stroke="#E4ECEF" stroke-width="1"/>
<text x="868.0" y="422.5" text-anchor="end" font-family="Georgia, Segoe UI, sans-serif" font-size="12" font-weight="400" fill="#526A75">0.25</text>
<line x1="878.0" y1="339.0" x2="1516.0" y2="339.0" stroke="#E4ECEF" stroke-width="1"/>
<text x="868.0" y="344.0" text-anchor="end" font-family="Georgia, Segoe UI, sans-serif" font-size="12" font-weight="400" fill="#526A75">0.50</text>
<line x1="878.0" y1="260.5" x2="1516.0" y2="260.5" stroke="#E4ECEF" stroke-width="1"/>
<text x="868.0" y="265.5" text-anchor="end" font-family="Georgia, Segoe UI, sans-serif" font-size="12" font-weight="400" fill="#526A75">0.75</text>
<line x1="878.0" y1="182.0" x2="1516.0" y2="182.0" stroke="#E4ECEF" stroke-width="1"/>
<text x="868.0" y="187.0" text-anchor="end" font-family="Georgia, Segoe UI, sans-serif" font-size="12" font-weight="400" fill="#526A75">1.00</text>
<text x="984.3" y="523.0" text-anchor="middle" font-family="Georgia, Segoe UI, sans-serif" font-size="12" font-weight="400" fill="#17313D">Coastal mainland / mixed</text>
<text x="984.3" y="543.0" text-anchor="middle" font-family="Georgia, Segoe UI, sans-serif" font-size="11" font-weight="400" fill="#526A75">n=182</text>
<line x1="984.3" y1="234.3" x2="984.3" y2="388.0" stroke="#176B87" stroke-width="2"/>
<line x1="984.3" y1="496.0" x2="984.3" y2="496.0" stroke="#176B87" stroke-width="2"/>
<line x1="959.7" y1="234.3" x2="1009.0" y2="234.3" stroke="#176B87" stroke-width="2"/>
<line x1="959.7" y1="496.0" x2="1009.0" y2="496.0" stroke="#176B87" stroke-width="2"/>
<rect x="947.3" y="388.0" width="74.0" height="108.0" fill="#176B87" fill-opacity="0.24" stroke="#176B87" stroke-width="2"/>
<line x1="947.3" y1="478.0" x2="1021.3" y2="478.0" stroke="#17313D" stroke-width="3"/>
<circle cx="975.9" cy="182.0" r="2.4" fill="#176B87" fill-opacity="0.55"/>
<circle cx="978.0" cy="182.0" r="2.4" fill="#176B87" fill-opacity="0.55"/>
<circle cx="980.1" cy="182.0" r="2.4" fill="#176B87" fill-opacity="0.55"/>
<circle cx="982.2" cy="182.0" r="2.4" fill="#176B87" fill-opacity="0.55"/>
<circle cx="984.3" cy="182.0" r="2.4" fill="#176B87" fill-opacity="0.55"/>
<circle cx="986.4" cy="182.0" r="2.4" fill="#176B87" fill-opacity="0.55"/>
<circle cx="988.5" cy="182.0" r="2.4" fill="#176B87" fill-opacity="0.55"/>
<circle cx="990.6" cy="182.0" r="2.4" fill="#176B87" fill-opacity="0.55"/>
<circle cx="992.7" cy="182.0" r="2.4" fill="#176B87" fill-opacity="0.55"/>
<circle cx="975.9" cy="182.0" r="2.4" fill="#176B87" fill-opacity="0.55"/>
<text x="1197.0" y="523.0" text-anchor="middle" font-family="Georgia, Segoe UI, sans-serif" font-size="12" font-weight="400" fill="#17313D">Island / archipelagic</text>
<text x="1197.0" y="543.0" text-anchor="middle" font-family="Georgia, Segoe UI, sans-serif" font-size="11" font-weight="400" fill="#526A75">n=87</text>
<line x1="1197.0" y1="182.0" x2="1197.0" y2="182.0" stroke="#D97706" stroke-width="2"/>
<line x1="1197.0" y1="496.0" x2="1197.0" y2="496.0" stroke="#D97706" stroke-width="2"/>
<line x1="1172.3" y1="182.0" x2="1221.7" y2="182.0" stroke="#D97706" stroke-width="2"/>
<line x1="1172.3" y1="496.0" x2="1221.7" y2="496.0" stroke="#D97706" stroke-width="2"/>
<rect x="1160.0" y="182.0" width="74.0" height="314.0" fill="#D97706" fill-opacity="0.24" stroke="#D97706" stroke-width="2"/>
<line x1="1160.0" y1="339.0" x2="1234.0" y2="339.0" stroke="#17313D" stroke-width="3"/>
<text x="1409.7" y="523.0" text-anchor="middle" font-family="Georgia, Segoe UI, sans-serif" font-size="12" font-weight="400" fill="#17313D">Landlocked</text>
<text x="1409.7" y="543.0" text-anchor="middle" font-family="Georgia, Segoe UI, sans-serif" font-size="11" font-weight="400" fill="#526A75">n=79</text>
<line x1="1409.7" y1="479.9" x2="1409.7" y2="487.3" stroke="#2F855A" stroke-width="2"/>
<line x1="1409.7" y1="496.0" x2="1409.7" y2="496.0" stroke="#2F855A" stroke-width="2"/>
<line x1="1385.0" y1="479.9" x2="1434.3" y2="479.9" stroke="#2F855A" stroke-width="2"/>
<line x1="1385.0" y1="496.0" x2="1434.3" y2="496.0" stroke="#2F855A" stroke-width="2"/>
<rect x="1372.7" y="487.3" width="74.0" height="8.7" fill="#2F855A" fill-opacity="0.24" stroke="#2F855A" stroke-width="2"/>
<line x1="1372.7" y1="496.0" x2="1446.7" y2="496.0" stroke="#17313D" stroke-width="3"/>
<circle cx="1401.3" cy="466.6" r="2.4" fill="#2F855A" fill-opacity="0.55"/>
<circle cx="1403.4" cy="464.6" r="2.4" fill="#2F855A" fill-opacity="0.55"/>
<circle cx="1405.5" cy="461.1" r="2.4" fill="#2F855A" fill-opacity="0.55"/>
<circle cx="1407.6" cy="458.3" r="2.4" fill="#2F855A" fill-opacity="0.55"/>
<circle cx="1409.7" cy="454.1" r="2.4" fill="#2F855A" fill-opacity="0.55"/>
<circle cx="1411.8" cy="417.5" r="2.4" fill="#2F855A" fill-opacity="0.55"/>
<circle cx="1413.9" cy="375.2" r="2.4" fill="#2F855A" fill-opacity="0.55"/>
<circle cx="1416.0" cy="370.4" r="2.4" fill="#2F855A" fill-opacity="0.55"/>
<circle cx="1418.1" cy="370.4" r="2.4" fill="#2F855A" fill-opacity="0.55"/>
<circle cx="1401.3" cy="356.4" r="2.4" fill="#2F855A" fill-opacity="0.55"/>
<circle cx="1403.4" cy="339.0" r="2.4" fill="#2F855A" fill-opacity="0.55"/>
<circle cx="1405.5" cy="324.7" r="2.4" fill="#2F855A" fill-opacity="0.55"/>
<circle cx="1407.6" cy="307.6" r="2.4" fill="#2F855A" fill-opacity="0.55"/>
<circle cx="1409.7" cy="271.7" r="2.4" fill="#2F855A" fill-opacity="0.55"/>
<circle cx="1411.8" cy="182.0" r="2.4" fill="#2F855A" fill-opacity="0.55"/>
<circle cx="1413.9" cy="182.0" r="2.4" fill="#2F855A" fill-opacity="0.55"/>
<circle cx="1416.0" cy="182.0" r="2.4" fill="#2F855A" fill-opacity="0.55"/>
<circle cx="1418.1" cy="182.0" r="2.4" fill="#2F855A" fill-opacity="0.55"/>
<circle cx="1401.3" cy="182.0" r="2.4" fill="#2F855A" fill-opacity="0.55"/>
</svg>
